<svg xmlns="http://www.w3.org/2000/svg" version="1.1" xmlns:xlink="http://www.w3.org/1999/xlink" xmlns:svgjs="http://svgjs.dev/svgjs" width="1000" height="623" viewBox="0 0 1000 623"><g transform="matrix(1,0,0,1,-0.6060606060606233,0.2522267206477409)"><svg viewBox="0 0 396 247" data-background-color="#ffffff" preserveAspectRatio="xMidYMid meet" height="623" width="1000" xmlns="http://www.w3.org/2000/svg" xmlns:xlink="http://www.w3.org/1999/xlink"><g id="tight-bounds" transform="matrix(1,0,0,1,0.2400000000000091,-0.09999999999999432)"><svg viewBox="0 0 395.52 247.2" height="247.2" width="395.52"><g><svg></svg></g><g><svg viewBox="0 0 395.52 247.2" height="247.2" width="395.52"><g transform="matrix(1,0,0,1,75.54432,78.58194597544339)"><svg viewBox="0 0 244.43135999999998 90.03610804911321" height="90.03610804911321" width="244.43135999999998"><g><svg viewBox="0 0 244.43135999999998 90.03610804911321" height="90.03610804911321" width="244.43135999999998"><g><svg viewBox="0 0 244.43135999999998 90.03610804911321" height="90.03610804911321" width="244.43135999999998"><g><svg viewBox="0 0 244.43135999999998 90.03610804911321" height="90.03610804911321" width="244.43135999999998"><g id="textblocktransform"><svg viewBox="0 0 244.43135999999998 90.03610804911321" height="90.03610804911321" width="244.43135999999998" id="textblock"><g><svg viewBox="0 0 244.43135999999998 90.03610804911321" height="90.03610804911321" width="244.43135999999998"><g transform="matrix(1,0,0,1,0,0)"><svg width="244.43135999999998" viewBox="4 -31.700000762939453 109.94000244140625 40.5" height="90.03610804911321" data-palette-color="#755bb4"><path d="M27.75 0L4 0 4-29.45 25.75-29.45Q30.45-29.45 32.6-27.58 34.75-25.7 34.75-23.05L34.75-23.05 34.75-21.55Q34.75-19.5 33.88-18.18 33-16.85 32-16.3L32-16.3Q34.2-15.6 35.5-13.88 36.8-12.15 36.8-9.35L36.8-9.35 36.8-8.45Q36.8-6.95 36.45-5.45 36.1-3.95 35.13-2.73 34.15-1.5 32.38-0.75 30.6 0 27.75 0L27.75 0ZM10.6-24.65L10.6-17.65 24.7-17.65Q26.45-17.6 27.3-18.53 28.15-19.45 28.15-20.85L28.15-20.85 28.15-21.35Q28.15-22.5 27.35-23.58 26.55-24.65 24.35-24.65L24.35-24.65 10.6-24.65ZM10.6-12.75L10.6-4.8 26.35-4.8Q28.25-4.8 29.23-5.75 30.2-6.7 30.2-8.35L30.2-8.35 30.2-9.25Q30.2-10.8 29.05-11.78 27.9-12.75 25.25-12.75L25.25-12.75 10.6-12.75ZM49.4 0L43.3 0 43.3-27.7 42.8-31.7 49.4-31.7 49.4 0ZM75.3 0L61.5 0Q58.15 0 56.52-1.35 54.9-2.7 54.9-5.75L54.9-5.75 54.9-16Q54.9-16.75 55.02-17.82 55.15-18.9 55.72-19.95 56.3-21 57.67-21.7 59.05-22.4 61.5-22.4L61.5-22.4 75.3-22.4Q77.8-22.4 79.15-21.7 80.5-21 81.07-19.95 81.65-18.9 81.77-17.82 81.9-16.75 81.9-16L81.9-16 81.9-6.4Q81.9-5.5 81.77-4.4 81.65-3.3 81.05-2.3 80.45-1.3 79.1-0.65 77.75 0 75.3 0L75.3 0ZM63.4-4.3L63.4-4.3 73.4-4.3Q75.85-4.3 75.85-6.3L75.85-6.3 75.85-16.1Q75.85-18.1 73.4-18.1L73.4-18.1 63.4-18.1Q61-18.1 61-16.1L61-16.1 61-6.3Q61-4.3 63.4-4.3ZM106.34 8.8L103.84 8.8Q98.34 8.8 94.89 8.7 91.44 8.6 89.59 8.4 87.74 8.2 87.07 7.9 86.39 7.6 86.39 7.25L86.39 7.25 87.89 3.5Q88.69 3.75 90.72 4.13 92.74 4.5 95.89 4.5L95.89 4.5 104.44 4.5Q106.29 4.5 107.07 3.95 107.84 3.4 107.84 2L107.84 2 107.84-1Q105.69-0.6 102.77-0.3 99.84 0 96.04 0L96.04 0 93.54 0Q91.04 0 89.69-0.65 88.34-1.3 87.77-2.3 87.19-3.3 87.07-4.4 86.94-5.5 86.94-6.4L86.94-6.4 86.94-16Q86.94-16.75 87.07-17.82 87.19-18.9 87.77-19.95 88.34-21 89.72-21.7 91.09-22.4 93.54-22.4L93.54-22.4 96.09-22.4Q101.34-22.4 104.27-22.2 107.19-22 108.54-21.75L108.54-21.75 109.84-22.4 113.94-22.4 113.94 2.4Q113.94 3.3 113.67 4.4 113.39 5.5 112.59 6.5 111.79 7.5 110.29 8.15 108.79 8.8 106.34 8.8L106.34 8.8ZM95.44-4.3L95.44-4.3 106.29-4.3Q107.44-4.3 107.64-4.5 107.84-4.7 107.84-5.8L107.84-5.8 107.84-17.75Q106.14-17.85 103.54-17.98 100.94-18.1 97.99-18.1L97.99-18.1 95.44-18.1Q93.04-18.1 93.04-16.1L93.04-16.1 93.04-6.3Q92.99-4.3 95.44-4.3Z" opacity="1" transform="matrix(1,0,0,1,0,0)" fill="#755bb4" class="wordmark-text-0" data-fill-palette-color="primary" id="text-0"></path></svg></g></svg></g></svg></g></svg></g></svg></g></svg></g></svg></g><path d="M219.679 72.582L219.679 19.277 11.033 19.277 11.033 227.923 219.679 227.923 219.679 174.618 211.56 174.618 211.56 219.804 19.152 219.804 19.152 27.396 211.56 27.396 211.56 72.582Z" fill="#755bb4" stroke="transparent" data-fill-palette-color="primary"></path></svg></g><defs></defs></svg><rect width="395.52" height="247.2" fill="none" stroke="none" visibility="hidden"></rect></g></svg></g></svg>